<?xml version="1.0" encoding="UTF-8"?>
<svg width="15px" height="15px" viewBox="0 0 15 15" version="1.1" xmlns="http://www.w3.org/2000/svg" xmlns:xlink="http://www.w3.org/1999/xlink">
    <!-- Generator: sketchtool 52.2 (67145) - http://www.bohemiancoding.com/sketch -->
    <title>69F8DA98-67D0-471A-AD26-EC28248711F9</title>
    <desc>Created with sketchtool.</desc>
    <g id="Page-1" stroke="none" stroke-width="1" fill="none" fill-rule="evenodd">
        <g id="Продукт" transform="translate(-577.000000, -1695.000000)">
            <g id="Отзывы" transform="translate(407.000000, 1490.000000)">
                <g id="Отзыв" transform="translate(1.000000, 98.000000)">
                    <g id="chat-(1)" transform="translate(169.000000, 107.000000)">
                        <path d="M12.7985518,2.19767442 C11.3810042,0.78012685 9.50045455,0 7.49622622,0 C5.49199789,0 3.6114482,0.78012685 2.19390063,2.19767442 C-0.546057082,4.93763214 -0.736331924,9.32346723 1.72138478,12.282241 C1.48036998,12.7674419 1.0934778,13.3319239 0.51948203,13.6141649 C0.24358351,13.7505285 0.088192389,14.0454545 0.135761099,14.3498943 C0.18332981,14.654334 0.418002114,14.8921776 0.72244186,14.9397463 C0.865147992,14.961945 1.06810782,14.9841438 1.31546512,14.9841438 C1.97825581,14.9841438 2.955,14.8287526 3.95394292,14.1088795 C5.06705074,14.7082452 6.28480973,15 7.49305497,15 C9.43385835,15 11.3556342,14.2484144 12.801723,12.8023256 C14.2192706,11.384778 14.9993975,9.50422833 14.9993975,7.5 C14.9993975,5.49577167 14.2160994,3.61522199 12.7985518,2.19767442 Z M12.1928436,12.1966173 C10.0522516,14.3372093 6.7382981,14.7621564 4.13153277,13.230444 C3.96028541,13.1289641 3.74781184,13.1606765 3.6114482,13.2970402 C3.59876321,13.3033827 3.58607822,13.3128964 3.57656448,13.3224101 C2.71715645,13.9883721 1.87360465,14.127907 1.31546512,14.127907 L1.31229387,14.127907 C1.95605708,13.6585624 2.36197674,12.9608879 2.5998203,12.4186047 C2.63787526,12.3266385 2.64421776,12.2315011 2.62201903,12.1427061 C2.61250529,12.0570825 2.57762156,11.9714588 2.51736786,11.9016913 C0.196014799,9.27906977 0.316522199,5.2832981 2.79643763,2.80338266 C5.38734672,0.212473573 9.60193446,0.212473573 12.1896723,2.80338266 C14.7837526,5.39429175 14.7837526,9.60570825 12.1928436,12.1966173 Z" id="Shape" fill="#494949" fill-rule="nonzero"></path>
                        <circle id="Oval" fill="#000000" cx="7.49622622" cy="7.5" r="1"></circle>
                        <circle id="Oval" fill="#000000" cx="10.210814" cy="7.5" r="1"></circle>
                        <circle id="Oval" fill="#000000" cx="4.78163848" cy="7.5" r="1"></circle>
                    </g>
                </g>
            </g>
        </g>
    </g>
</svg>