<?xml version="1.0" encoding="UTF-8"?>
<svg width="16px" height="17px" viewBox="0 0 16 17" version="1.1" xmlns="http://www.w3.org/2000/svg" xmlns:xlink="http://www.w3.org/1999/xlink">
    <!-- Generator: sketchtool 52.2 (67145) - http://www.bohemiancoding.com/sketch -->
    <title>ACBBF746-360A-4EED-9FB2-0381E9F8FB87</title>
    <desc>Created with sketchtool.</desc>
    <g id="Page-1" stroke="none" stroke-width="1" fill="none" fill-rule="evenodd">
        <g id="Продукт" transform="translate(-903.000000, -1696.000000)" fill="#494949" fill-rule="nonzero">
            <g id="Отзывы" transform="translate(407.000000, 1490.000000)">
                <g id="Отзыв" transform="translate(1.000000, 98.000000)">
                    <g id="thumbs-up" transform="translate(495.000000, 108.000000)">
                        <path d="M15.4897157,9.50127026 C15.8300512,8.99713744 16,8.44219415 16,7.8360468 C16,7.13446882 15.7363932,6.52510108 15.2087419,6.00697749 C14.6808352,5.48939063 14.0557679,5.23065087 13.3336131,5.23065087 L11.500187,5.23065087 C11.8334443,4.55644613 12.0003649,3.90252979 12.0003649,3.26922389 C12.0003649,2.47232261 11.8785037,1.83898093 11.6356571,1.36901993 C11.3925552,0.898915805 11.0383188,0.553368877 10.5729844,0.33191398 C10.1075406,0.110566429 9.58339186,0 9.00006385,0 C8.64571799,0 8.33333029,0.125988478 8.06249943,0.378072781 C7.76393969,0.664078434 7.54863955,1.03195334 7.41674496,1.48148281 C7.28477739,1.93086915 7.17882389,2.3617204 7.0990304,2.7737861 C7.01923691,3.18581601 6.8958434,3.47697427 6.72925123,3.6472251 C6.38887926,4.00819408 6.01738528,4.44419795 5.61458685,4.95495044 C4.9131922,5.84706766 4.43742304,6.37495975 4.18753478,6.53848356 L1.33335766,6.53848356 C0.965293297,6.53848356 0.651008364,6.66636848 0.39057583,6.92156582 C0.130252752,7.17701363 0,7.48520414 0,7.8462089 L0,14.3844062 C0,14.745411 0.130106811,15.0534941 0.39057583,15.3089419 C0.651154306,15.5643897 0.965293297,15.6922031 1.33335766,15.6922031 L4.33322084,15.6922031 C4.48602154,15.6922031 4.96511087,15.8283895 5.77070772,16.1008337 C6.62493957,16.3937453 7.37668403,16.6167388 8.02594109,16.770029 C8.67527113,16.9233191 9.33328469,17 10.0000182,17 L10.9685223,17 L11.3437377,17 C12.322859,17 13.1110158,16.7256951 13.7083178,16.1773715 C14.3054007,15.6290478 14.6006768,14.8815973 14.5938176,13.9349125 C15.0104804,13.4104555 15.2187754,12.8043082 15.2187754,12.1165062 C15.2187754,11.9667585 15.208523,11.8203385 15.1875804,11.6771747 C15.4513696,11.2210255 15.5835925,10.730633 15.5835925,10.206176 C15.5834831,9.96096182 15.5522881,9.72587398 15.4897157,9.50127026 Z M2.4688187,14.1904319 C2.33688762,14.3197481 2.18065728,14.3846567 2.00009121,14.3846567 C1.81948866,14.3846567 1.66322184,14.3197839 1.53125428,14.1904319 C1.39935968,14.0611515 1.33335766,13.9078613 1.33335766,13.730633 C1.33335766,13.5535836 1.39921374,13.4004008 1.53125428,13.2709414 C1.66336778,13.1415179 1.81948866,13.076824 2.00009121,13.076824 C2.18065728,13.076824 2.33688762,13.1415179 2.4688187,13.2709414 C2.60078626,13.400365 2.66678828,13.5535478 2.66678828,13.730633 C2.66678828,13.9078613 2.60078626,14.0611515 2.4688187,14.1904319 Z M14.4431695,8.67424053 C14.2938349,8.98747629 14.1080149,9.14752925 13.8858191,9.15425627 C13.9899483,9.27008266 14.0768199,9.43199628 14.1462881,9.63953197 C14.2156832,9.84731814 14.2501619,10.0362472 14.2501619,10.2066054 C14.2501619,10.6763159 14.0663851,11.0816546 13.6982843,11.4220847 C13.8234291,11.6399256 13.8858555,11.8750134 13.8858555,12.126883 C13.8858555,12.3788958 13.8251804,12.629191 13.7035747,12.8777329 C13.5821878,13.12606 13.4171281,13.3048986 13.2088696,13.413819 C13.2435672,13.6180985 13.2607883,13.8088525 13.2607883,13.9859019 C13.2607883,15.1232333 12.5940547,15.6919168 11.2605511,15.6919168 L10.0004926,15.6919168 C9.09054755,15.6919168 7.90320433,15.4434823 6.43776965,14.9461838 C6.4029991,14.9325867 6.30244543,14.8966973 6.13567083,14.8389094 C5.96889623,14.7811214 5.84568515,14.738505 5.7657822,14.7113465 C5.68587925,14.6839017 5.56445596,14.6447561 5.40114746,14.5938026 C5.23787546,14.5425985 5.10609032,14.5050989 5.00531774,14.4813755 C4.90469111,14.4576162 4.7900176,14.4354671 4.66166209,14.4149998 C4.53323361,14.3945683 4.423814,14.3844062 4.33354921,14.3844062 L4.00021891,14.3844062 L4.00021891,7.84645937 L4.33354921,7.84645937 C4.44464714,7.84645937 4.5678947,7.81572262 4.70332838,7.75457115 C4.83872557,7.69324078 4.97769832,7.60131678 5.12002773,7.47869181 C5.26243011,7.35606684 5.39600303,7.23519519 5.52107486,7.11593373 C5.6461102,6.99677962 5.7849735,6.84696032 5.9378107,6.66654739 C6.09057492,6.48599134 6.21035637,6.34132465 6.29722802,6.23233263 C6.38399022,6.12337639 6.49333686,5.9836834 6.62530442,5.81343257 C6.75719902,5.64321752 6.83713845,5.54102408 6.86490382,5.50692382 C7.24679613,5.04386875 7.51416088,4.73399649 7.6669251,4.57727126 C7.95165689,4.28450281 8.15823703,3.91161842 8.286702,3.45868966 C8.41531291,3.00568934 8.52119344,2.57830894 8.60423413,2.17654847 C8.68749373,1.77475221 8.81960724,1.48520414 9.00039222,1.30811894 C9.66690686,1.30811894 10.111481,1.46810033 10.3336404,1.78824203 C10.5557633,2.10831216 10.6668977,2.60213976 10.6668977,3.26958171 C10.6668977,3.67137797 10.5000867,4.21791248 10.1666834,4.90914946 C9.83342607,5.60045801 9.66690686,6.14362901 9.66690686,6.53862669 L13.3335036,6.53862669 C13.6810997,6.53862669 13.9899848,6.66966043 14.2607062,6.93201417 C14.5316465,7.194189 14.6672626,7.49890865 14.6672626,7.84635202 C14.6671531,8.08469603 14.5924676,8.36057537 14.4431695,8.67424053 Z" id="Shape"></path>
                    </g>
                </g>
            </g>
        </g>
    </g>
</svg>